<svg width="100" height="100" viewBox="0 0 100 100" fill="none" xmlns="http://www.w3.org/2000/svg">
<g clip-path="url(#clip0_208_2)">
<rect width="100" height="100" fill="white"/>
<path d="M46.0047 84.5686C46.0225 84.7001 46.0918 84.8188 46.1976 84.8988C46.3033 84.9789 46.4369 85.0135 46.5686 84.9953C46.7004 84.977 46.8195 84.9073 46.8995 84.8016C46.9795 84.6958 47.0139 84.5627 46.9953 84.4314C46.9953 84.4314 46.9953 84.4314 46.9953 84.4314C46.7496 82.6971 46.5053 81.0328 46.2467 79.3368C42.1065 49.4972 32.8161 15.895 4.50422 0.503396C3.04454 -0.417999 1.60002 -1.28878 0.0945335 -2.16192C0.051641 -2.18679 0.000551767 -2.19359 -0.0474505 -2.1809C-0.0954554 -2.1682 -0.136441 -2.13706 -0.161436 -2.09425C-0.186431 -2.05144 -0.1934 -2.00043 -0.180854 -1.95239C-0.168306 -1.90435 -0.137272 -1.8632 -0.0945335 -1.83808C-0.0945335 -1.83808 -0.0945335 -1.83808 -0.0945335 -1.83808C1.40197 -0.958118 2.83698 -0.0809059 4.28629 0.846244C32.3729 16.3712 41.3089 49.629 45.2886 79.4799C45.5363 81.1738 45.7698 82.8362 46.0047 84.5686Z" fill="#FF0000"/>
<path d="M55.4527 60.8154C56.6087 62.8063 58.3843 65.3222 60.7047 66.7725C63.0216 68.2205 66.1949 68.7374 68.61 68.9297C65.1527 71.6574 61.9607 74.4959 59.024 76.9023C55.0267 80.1778 51.5169 82.6432 48.1139 83.5508C48.0341 83.5721 47.9724 83.5822 47.9273 83.5879C47.8218 83.3162 47.7299 82.6847 47.8443 81.54C48.0831 79.1524 49.0755 75.672 50.3541 71.9922C51.6203 68.3479 53.1223 64.6313 54.3111 61.8184C54.5744 61.1955 54.8225 60.6177 55.0484 60.0957C55.1754 60.3291 55.3101 60.5699 55.4527 60.8154Z" fill="#FF0000" stroke="black" stroke-width="3"/>
<path d="M61.5 64.5C57.5 62 54 53 54 53L100.5 -56.5L183 -13L77 66.5C77 66.5 65.5 67 61.5 64.5Z" fill="black" stroke="black" stroke-width="3"/>
</g>
<defs>
<clipPath id="clip0_208_2">
<rect width="100" height="100" fill="white"/>
</clipPath>
</defs>
</svg>
